<svg id="75d5d634-cdbc-4e56-81e1-2896687e3f0c" data-name="Clean Icons" xmlns="http://www.w3.org/2000/svg" xmlns:xlink="http://www.w3.org/1999/xlink" viewBox="0 0 102 115">
  <defs>
    <mask id="6be39783-0a1d-41c7-87db-8eed992490be" x="1.35" y="13.88" width="98.87" height="91.38" maskUnits="userSpaceOnUse">
      <g>
        <polyline points="16.29 58.55 16.29 49.52 86.72 49.52 86.72 58.55" style="fill: none;stroke: #fff;stroke-miterlimit: 10"/>
        <polyline points="21.7 45.91 21.7 38.68 81.3 38.68 81.3 45.91" style="fill: none;stroke: #fff;stroke-miterlimit: 10"/>
        <polyline points="27.12 35.07 27.12 27.85 75.88 27.85 75.88 35.07" style="fill: none;stroke: #fff;stroke-miterlimit: 10"/>
        <polyline points="32.54 24.24 32.54 17.01 70.46 17.01 70.46 24.24" style="fill: none;stroke: #fff;stroke-miterlimit: 10"/>
      </g>
    </mask>
    <linearGradient id="0605b495-46ce-42c2-9c2f-81fa17e2360e" data-name="Verlauf" x1="50.79" y1="13.88" x2="50.79" y2="105.26" gradientUnits="userSpaceOnUse">
      <stop offset="0" stop-color="#4ef2f1"/>
      <stop offset="1" stop-color="#299ed4"/>
    </linearGradient>
  </defs>
  <title>_</title>
  <g id="22abdc90-94f6-4f53-aadc-34bb2bf279b8" data-name="3 - Fill">
    <path d="M70.46,62.16,65,67.58H38l-5.42-5.42H3.64v39.73H99.36V62.16Zm-9,23.48a3.62,3.62,0,0,1-3.61,3.61H45.18a3.62,3.62,0,0,1-3.61-3.61V78.41H61.43Z" style="fill: #bcc0c4"/>
  </g>
  <g id="b791e509-437d-4f61-bb82-28050829d5b1" data-name="0 - Hover">
    <g style="mask: url(#6be39783-0a1d-41c7-87db-8eed992490be)">
      <rect x="1.35" y="13.88" width="98.87" height="91.38" style="fill: url(#0605b495-46ce-42c2-9c2f-81fa17e2360e)"/>
    </g>
  </g>
  <g id="5d2dc3fc-7fee-4b14-a00a-18d01b60c02a" data-name="1 - Stroke">
    <path d="M70.46,62.16,65,67.58H38l-5.42-5.42H3.64v39.73H99.36V62.16Z" style="fill: none;stroke: #526468;stroke-miterlimit: 10"/>
    <polyline points="3.64 62.16 3.64 58.55 23.51 18.82 27.12 18.82" style="fill: none;stroke: #526468;stroke-miterlimit: 10"/>
    <polyline points="99.36 62.16 99.36 58.55 79.49 18.82 75.88 18.82" style="fill: none;stroke: #526468;stroke-miterlimit: 10"/>
    <path d="M57.82,89.25H45.18a3.62,3.62,0,0,1-3.61-3.61V78.41H61.43v7.23A3.62,3.62,0,0,1,57.82,89.25Z" style="fill: none;stroke: #526468;stroke-miterlimit: 10"/>
  </g>
</svg>