<svg id="1ebad287-957e-4749-bd64-390be8730083" data-name="Clean Icons" xmlns="http://www.w3.org/2000/svg" xmlns:xlink="http://www.w3.org/1999/xlink" viewBox="0 0 89 115">
  <defs>
    <mask id="3d725c19-3162-4bb7-ae13-1b6ba3663641" x="3.35" y="15.35" width="82.23" height="82.41" maskUnits="userSpaceOnUse">
      <g>
        <path d="M39.76,61.56h0a3,3,0,0,0,3,3h3a3,3,0,0,0,2.95-3v-.89a3,3,0,0,0-2.07-2.8l-4.87-1.63a3,3,0,0,1-2.07-2.8v-.89a3,3,0,0,1,3-2.95h3a3,3,0,0,1,2.95,2.95h0" style="fill: none;stroke: #fff;stroke-miterlimit: 10"/>
        <line x1="44.19" y1="49.75" x2="44.19" y2="45.32" style="fill: none;stroke: #fff;stroke-miterlimit: 10"/>
        <line x1="44.19" y1="64.51" x2="44.19" y2="68.94" style="fill: none;stroke: #fff;stroke-miterlimit: 10"/>
        <path d="M55.12,70.86a18.12,18.12,0,0,1-11.08,4A17.47,17.47,0,0,1,26.47,59.49" style="fill: none;stroke: #fff;stroke-miterlimit: 10"/>
        <path d="M46.55,39.41A17.36,17.36,0,0,1,61.91,57a16.82,16.82,0,0,1-4,10.92" style="fill: none;stroke: #fff;stroke-miterlimit: 10"/>
        <path d="M26.47,54.47a21.69,21.69,0,0,1,3.7-8.56" style="fill: none;stroke: #fff;stroke-miterlimit: 10"/>
        <path d="M32.68,43.25a22.44,22.44,0,0,1,8.71-3.84" style="fill: none;stroke: #fff;stroke-miterlimit: 10"/>
        <path d="M47.14,18.89V32.18a25.2,25.2,0,0,1,22.15,25,24.79,24.79,0,0,1-5.46,15.5l9.44,9.45A38.27,38.27,0,0,0,47.14,18.89Z" style="fill: none;stroke: #fff;stroke-miterlimit: 10"/>
        <path d="M59.69,76.76a24.71,24.71,0,0,1-15.5,5.46A25.21,25.21,0,0,1,19.24,60.08H6A38.35,38.35,0,0,0,44.19,95.51a37.94,37.94,0,0,0,25-9.3Z" style="fill: none;stroke: #fff;stroke-miterlimit: 10"/>
        <path d="M24.56,41.63l-9.45-9.45A38.78,38.78,0,0,0,6,54.17H19.24A25.16,25.16,0,0,1,24.56,41.63Z" style="fill: none;stroke: #fff;stroke-miterlimit: 10"/>
        <path d="M41.24,32.18V18.89a37.85,37.85,0,0,0-22,9.15l9.45,9.45A25.23,25.23,0,0,1,41.24,32.18Z" style="fill: none;stroke: #fff;stroke-miterlimit: 10"/>
      </g>
    </mask>
    <linearGradient id="21840022-1307-422b-a118-573c5ddb89cf" data-name="Verlauf" x1="44.47" y1="15.35" x2="44.47" y2="97.76" gradientUnits="userSpaceOnUse">
      <stop offset="0" stop-color="#4ef2f1"/>
      <stop offset="1" stop-color="#299ed4"/>
    </linearGradient>
  </defs>
  <title>_</title>
  <g id="f03dd891-1ff3-47c7-971f-f2e00f30c564" data-name="0 - Hover">
    <g style="mask: url(#3d725c19-3162-4bb7-ae13-1b6ba3663641)">
      <rect x="3.35" y="15.35" width="82.23" height="82.41" style="fill: url(#21840022-1307-422b-a118-573c5ddb89cf)"/>
    </g>
  </g>
</svg>
