<svg xmlns="http://www.w3.org/2000/svg" xmlns:xlink="http://www.w3.org/1999/xlink" viewBox="0 0 89 115"><defs><style>.cls-1{fill:none;stroke:#fff;stroke-miterlimit:10;}.cls-2{fill:#bcc0c4;opacity:0.5;}.cls-3{mask:url(#mask);}.cls-4{fill:url(#Verlauf);}</style><mask id="mask" x="1.5" y="0.5" width="86" height="113" maskUnits="userSpaceOnUse"><path class="cls-1" d="M71,46.88v-21a6,6,0,0,0-6-6H12.5a6,6,0,0,0-6,6v28.5a6,6,0,0,0,6,6H17"/><line class="cls-1" x1="71" y1="27.38" x2="6.5" y2="27.38"/><line class="cls-1" x1="71" y1="36.38" x2="6.5" y2="36.38"/><line class="cls-1" x1="11" y1="42.38" x2="24.5" y2="42.38"/><line class="cls-1" x1="27.5" y1="42.38" x2="41" y2="42.38"/><path class="cls-1" d="M26,49.88a6,6,0,0,0-6,6v31.5a6,6,0,0,0,6,6H78.5a6,6,0,0,0,6-6V55.88a6,6,0,0,0-6-6Z"/><line class="cls-1" x1="29" y1="82.88" x2="38" y2="82.88"/><line class="cls-1" x1="42.5" y1="82.88" x2="50" y2="82.88"/><line class="cls-1" x1="54.5" y1="82.88" x2="63.5" y2="82.88"/><line class="cls-1" x1="68" y1="82.88" x2="77" y2="82.88"/><path class="cls-1" d="M77,64.13a5.31,5.31,0,0,1-5.25,5.25h-1.5A5.31,5.31,0,0,1,65,64.13h0a5.31,5.31,0,0,1,5.25-5.25h1.5A5.31,5.31,0,0,1,77,64.13Z"/></mask><linearGradient id="Verlauf" x1="44.5" y1="0.5" x2="44.5" y2="113.5" gradientUnits="userSpaceOnUse"><stop offset="0" stop-color="#4ef2f1"/><stop offset="1" stop-color="#299ed4"/></linearGradient></defs><title>credit_cards_hover</title><g id="Fill_1" data-name="Fill 1"><path class="cls-2" d="M78.5,49.88H26a6,6,0,0,0-6,6v31.5a6,6,0,0,0,6,6H78.5a6,6,0,0,0,6-6V55.88A6,6,0,0,0,78.5,49.88Zm-6.75,19.5h-1.5a5.25,5.25,0,1,1,0-10.5h1.5a5.25,5.25,0,1,1,0,10.5Z"/></g><g id="Gradient"><g class="cls-3"><rect class="cls-4" x="1.5" y="0.5" width="86" height="113"/></g></g></svg>