<svg xmlns="http://www.w3.org/2000/svg" xmlns:xlink="http://www.w3.org/1999/xlink" width="670" height="580" viewBox="0 0 670 580">
  <defs>
    <rect id="db-devportal_firstviewport-api-partner-a" width="670" height="580"/>
  </defs>
  <g fill="none" fill-rule="evenodd">
    <mask id="db-devportal_firstviewport-api-partner-b" fill="#fff">
      <use xlink:href="#db-devportal_firstviewport-api-partner-a"/>
    </mask>
    <use fill="#051B2D" fill-rule="nonzero" xlink:href="#db-devportal_firstviewport-api-partner-a"/>
    <g mask="url(#db-devportal_firstviewport-api-partner-b)">
      <g transform="translate(35 18)">
        <path fill="#213D52" d="M80.3390475,315.372136 C80.3390475,254.359288 111.113289,228.798082 187.503682,211.57295 C263.94328,194.625899 274.074056,98.6394354 373.283298,98.6394354 C472.766849,98.6394354 603.51049,269.533911 537.547236,367.686925 C471.607544,465.937294 288.452865,331.910339 228.466225,376.406057 C168.36282,420.690553 80.3390475,376.215401 80.3390475,315.372136 Z" opacity=".1" transform="rotate(-30 317.839 251.64)"/>
        <path fill="#042236" d="M33,337.690638 C33,275.282071 64.551696,249.136132 142.871951,231.516961 C221.242655,214.182232 231.629367,116 333.344948,116 C435.341767,116 569.388406,290.803826 501.758711,391.202171 C434.153174,491.700097 246.37143,354.607166 184.869338,400.12076 C123.247531,445.4183 33,399.925743 33,337.690638 Z" transform="rotate(-165 276.5 272.5)"/>
        <g transform="translate(172 153)">
          <path stroke="#39C3E7" stroke-width="2" d="M131.412281 139.286086C139.926316 139.286086 146.219298 132.9718 146.219298 124.428943L146.219298 79.4860857C146.219298 64.6289429 119.196491 57.2003714 105.5 57.2003714 91.8035088 57.2003714 64.7807018 64.6289429 64.7807018 79.4860857L64.7807018 124.428943C64.7807018 132.9718 71.0736842 139.286086 79.5877193 139.286086M105.5 46.0571429C115.864912 46.0571429 124.008772 37.5142857 124.008772 27.1142857L124.008772 20.8C124.008772 10.4 115.864912 1.85714286 105.5 1.85714286 95.1350877 1.85714286 86.9912281 10.4 86.9912281 20.8L86.9912281 27.1142857C86.9912281 37.5142857 95.1350877 46.0571429 105.5 46.0571429z"/>
          <path stroke="#FFF" stroke-width="2" d="M194.342105 153.771429C202.85614 153.771429 209.149123 147.457143 209.149123 138.914286L209.149123 93.9714286C209.149123 79.1142857 182.126316 72.0571429 168.429825 72.0571429L153.622807 72.0571429M190.640351 205.771429L190.640351 109.2M168.429825 60.5424857C178.794737 60.5424857 186.938596 51.9996286 186.938596 41.5996286L186.938596 35.2853429C186.938596 24.8853429 178.794737 16.3424857 168.429825 16.3424857 158.064912 16.3424857 149.921053 24.8853429 149.921053 35.2853429L149.921053 41.5996286C149.921053 51.9996286 158.064912 60.5424857 168.429825 60.5424857zM16.6578947 153.771429C8.14385965 153.771429 1.85087719 147.457143 1.85087719 138.914286L1.85087719 93.9714286C1.85087719 79.1142857 28.8736842 72.0571429 42.5701754 72.0571429L57.377193 72.0571429M20.3596491 205.771429L20.3596491 109.2M42.5701754 60.5424857C32.2052632 60.5424857 24.0614035 51.9996286 24.0614035 41.5996286L24.0614035 35.2853429C24.0614035 24.8853429 32.2052632 16.3424857 42.5701754 16.3424857 52.9350877 16.3424857 61.0789474 24.8853429 61.0789474 35.2853429L61.0789474 41.5996286C61.0789474 51.9996286 52.9350877 60.5424857 42.5701754 60.5424857z"/>
          <path stroke="#39C3E7" stroke-width="2" d="M127.710526 205.771429L127.710526 94.3428571M83.2894737 94.3428571L83.2894737 205.771429M105.5 135.2L105.5 205.771429"/>
        </g>
        <g transform="translate(29 148)">
          <circle cx="30" cy="30" r="30" fill="#39C3E7" fill-rule="nonzero"/>
          <path fill="#051B2D" d="M24.601818,27.2931411 C23.3485485,24.8196094 20.4503994,20.1922739 14.3685115,14.7305452 C14.4299328,14.6631117 14.4989829,14.584633 14.5739013,14.495303 C17.6257994,11.9082194 20.8684167,9.55017722 24.2771064,7.44481706 C25.294471,9.24226951 25.8280935,11.2689572 25.826333,13.3297492 L25.2058599,20.4042632 C23.5956032,18.5796823 21.8716974,16.8562517 20.0421626,15.2461792 C19.798042,15.0320584 19.4250149,15.05473 19.2088665,15.2965606 C18.992718,15.5383912 19.0156043,15.9079192 19.2597249,16.1220401 C21.2480946,17.8716302 23.1102963,19.7572501 24.8326372,21.7647541 C24.8971883,21.8409075 24.9807135,21.8957457 25.0720631,21.9306251 L24.601818,27.2931411 Z M13.6674473,13.6942391 C13.1461482,13.0534268 12.3136345,11.8264465 12.3136345,10.4599486 C12.3136345,8.29742495 13.1215014,6.91775037 13.6829004,6.91775037 L13.6829004,6.90999938 C14.2442995,6.90999938 15.0580346,8.28967397 15.0521664,10.4599486 C15.0521664,11.7694768 14.2951579,12.9474321 13.7679905,13.6082032 C13.7343457,13.6368818 13.7010921,13.6655605 13.6674473,13.6942391 Z M2.3786323,27.058674 L1.96589643,22.3652613 C1.98506616,22.3210807 3.83220587,18.2492967 8.65965065,12.8046203 C8.87560344,12.5612395 8.85154348,12.1903551 8.60585806,11.9762342 C8.36017263,11.7621134 7.98577621,11.7861414 7.7696278,12.0295222 C4.65689517,15.5420729 2.7690687,18.4608985 1.77498164,20.1914988 L1.18150268,13.4421385 C1.18795779,6.70266065 6.70160039,1.24073825 13.5048959,1.23434369 C13.5850957,1.23434369 13.6641219,1.21554756 13.735715,1.18008683 L13.7278906,1.17814908 C17.6977837,1.25313982 21.3887378,3.21626948 23.645288,6.45269152 C20.7784364,8.23832372 18.2703325,10.0078726 16.0761817,11.72549 C16.1823976,11.324958 16.2473399,10.9009794 16.2473399,10.4599486 C16.2473399,7.77035825 15.148015,5.74347677 13.6868126,5.74347677 C12.2256103,5.74347677 11.1243293,7.772296 11.1243293,10.4599486 C11.1243293,12.2157395 12.1387597,13.7064469 12.7754684,14.4697247 C6.6808658,19.8628572 3.70760267,24.4849608 2.3786323,27.058674 Z M24.9910808,6.36355524 C24.9842345,6.34882837 24.9764101,6.33468283 24.9676077,6.32092484 L24.9382662,6.27829445 C22.4696754,2.37412542 18.1474898,0.00251906876 13.4970715,0 C13.4137419,0.00058132356 13.3319772,0.0211214227 13.258428,0.0600701012 C5.88395303,0.206951187 -0.013084028,6.17791925 2.18028287e-05,13.4847688 L1.40058522,29.4382251 C1.40938764,29.6949763 1.5871966,29.9154917 1.83796788,29.9807937 C2.15152977,30.0623728 2.47232921,29.876543 2.55468078,29.5661163 C2.55468078,29.5370501 3.47991331,26.7757632 6.66247851,22.6503036 C8.69329547,20.0593445 10.9609954,17.6592533 13.4364326,15.4806464 C22.2036466,23.309137 24.288843,29.5099217 24.3084039,29.5719295 C24.385474,29.814729 24.6129678,29.9794373 24.8698029,29.9786622 C24.9462862,29.9784684 25.0219871,29.963354 25.0927977,29.9342879 L25.2336365,29.8761555 C25.4398088,29.7938013 25.58143,29.603321 25.5994261,29.3839682 L26.9999895,13.3781929 C27.0031192,10.9002043 26.3073365,8.47065937 24.9910808,6.36355524 Z" transform="translate(16 15)"/>
        </g>
        <circle cx="12" cy="12" r="12" fill="#39C3E7" fill-rule="nonzero" transform="translate(160 435)"/>
        <g transform="translate(474 306)">
          <circle cx="26" cy="26" r="26" fill="#39C3E7" fill-rule="nonzero"/>
          <path fill="#051B2D" fill-rule="nonzero" d="M27,18 L38,18 L32.5,31 L27,18 Z M14,18 L20.4286326,18 L29,39 L22.5713674,39 L14,18 Z"/>
        </g>
        <circle cx="11" cy="11" r="9.5" stroke="#39C3E7" stroke-width="3" transform="translate(457 161)"/>
      </g>
    </g>
  </g>
</svg>
