<svg id="439dc348-a34c-4b3a-a2f9-b67d25fdfc62" data-name="Ebene 2" xmlns="http://www.w3.org/2000/svg" xmlns:xlink="http://www.w3.org/1999/xlink" viewBox="0 0 205.76 105.86">
  <defs>
    <mask id="96aa544e-68a2-4e0b-aaec-3071169a2782" x="50.54" y="14.73" width="38.61" height="27.93" maskUnits="userSpaceOnUse">
      <g>
        <g id="dc2b3c92-25c2-4db3-b05b-88a7b1e96119" data-name="&lt;Gruppe&gt;">
          <rect id="5b75d8fb-ba40-4692-92df-c9e9286613e6" data-name="&lt;Pfad&gt;" x="58.32" y="15.32" width="3.92" height="2.17" style="fill: #fff"/>
        </g>
        <g id="5a02655d-bcd7-4bde-8d67-b7e02ab665aa" data-name="&lt;Gruppe&gt;">
          <rect id="d8b925f5-121c-476e-b120-f24c2c77b3d3" data-name="&lt;Pfad&gt;" x="51.37" y="19.57" width="0.86" height="2.17" style="fill: #fff"/>
        </g>
        <g id="83f7ebbb-3746-44e6-a6df-76e9cc3eec88" data-name="&lt;Gruppe&gt;">
          <rect id="2329cc25-6b05-417e-a28e-f2049626181f" data-name="&lt;Pfad&gt;" x="54.55" y="19.57" width="0.86" height="2.17" style="fill: #fff"/>
        </g>
        <g id="fb21e51f-a15d-47d1-a580-4bb3e205decb" data-name="&lt;Gruppe&gt;">
          <rect id="edea320a-53a7-4747-bef2-eb90f88f6181" data-name="&lt;Pfad&gt;" x="57.74" y="19.57" width="0.86" height="2.17" style="fill: #fff"/>
        </g>
        <g id="6609a80b-0d8d-4764-af6d-33455a82f732" data-name="&lt;Gruppe&gt;">
          <path id="2b6e62fd-5b97-4078-8f8e-9c3bf3959856" data-name="&lt;Zusammengesetzter Pfad&gt;" d="M62.58,36.79V35.28L68,32.75v1.62L64.4,36,68,37.69v1.63Z" style="fill: #fff"/>
          <path id="2f444aa9-3b00-409a-9518-61bf8e45d44a" data-name="&lt;Zusammengesetzter Pfad&gt;" d="M73.69,31.5h1.57L70.62,41.63H69.06Z" style="fill: #fff"/>
          <path id="f701e6ed-2c9b-4c0b-b47c-38731144c9d8" data-name="&lt;Zusammengesetzter Pfad&gt;" d="M81.73,35.28v1.51l-5.37,2.53V37.69L79.91,36l-3.55-1.64V32.75Z" style="fill: #fff"/>
        </g>
      </g>
    </mask>
    <linearGradient id="0ed3815a-4ad4-459d-b4dd-03999e29953c" data-name="Verlauf" x1="69.85" y1="42.67" x2="69.85" y2="14.73" gradientUnits="userSpaceOnUse">
      <stop offset="0" stop-color="#4ef2f1"/>
      <stop offset="1" stop-color="#299ed4"/>
    </linearGradient>
  </defs>
  <title>171113-icon_ developement</title>
  <g>
    <g id="2f7534d0-0b89-4c4e-b1e3-ed31298604df" data-name="&lt;Gruppe&gt;">
      <rect id="8e285834-7c79-4291-885d-fa2d40ef8b53" data-name="&lt;Pfad&gt;" x="5" y="104.03" width="195.76" height="1.5" style="fill: #666"/>
    </g>
    <g>
      <g id="b18890ac-2731-4692-adaf-98293341c072" data-name="&lt;Gruppe&gt;">
        <rect id="f7508fb2-4963-4973-8336-459f848ee8c2" data-name="&lt;Rechteck&gt;" x="54.96" y="29.29" width="99.04" height="71.19" rx="1" ry="1" style="fill: #fff"/>
      </g>
      <g id="099336f3-0f3c-4649-acc2-6056352d9b5d" data-name="&lt;Gruppe&gt;">
        <path id="fa2a4b55-53b3-4127-8878-74b6e1544e23" data-name="&lt;Pfad&gt;" d="M57.42,101.57A3.55,3.55,0,0,1,53.87,98V56.17h2.18V98a1.37,1.37,0,0,0,1.37,1.37Z" style="fill: #666"/>
      </g>
      <g id="1c2d1d1a-9a05-4f75-a692-0bab5bceac38" data-name="&lt;Gruppe&gt;">
        <g id="f2cc15d7-8886-41b7-8309-adc4321a0256" data-name="&lt;Gruppe&gt;">
          <path d="M155.09,96.47h-2.18V31.75a1.38,1.38,0,0,0-1.37-1.37H99.35V28.2h52.19a3.55,3.55,0,0,1,3.55,3.55Z" style="fill: #666"/>
        </g>
      </g>
      <g id="a060588e-f3a3-4f06-94c3-eb967a03ecaa" data-name="&lt;Gruppe&gt;" style="opacity: 0.2">
        <rect id="303350c2-ef6c-4744-9496-f1b656667f70" data-name="&lt;Rechteck&gt;" x="59.77" y="34.89" width="88.89" height="57.77" style="fill: #8091a1"/>
      </g>
      <g id="0a455019-46c7-4277-bc1a-2e5fdc32d672" data-name="&lt;Gruppe&gt;">
        <path id="0abcbd11-bd7c-45cb-90e0-7ac906f9e69f" data-name="&lt;Pfad&gt;" d="M152.27,104.43H55.6a4.74,4.74,0,0,1-4.68-4l-.69-4.2H95l1.71,2.46h12.38L111,96.26h47.2l-.6,3.66A5.39,5.39,0,0,1,152.27,104.43Z" style="fill: #fff"/>
      </g>
      <g id="742cb835-2dd1-4d6a-a6aa-5ada83938f07" data-name="&lt;Gruppe&gt;">
        <path id="30b308d1-7614-4ebe-8420-b7a61be23cc2" data-name="&lt;Zusammengesetzter Pfad&gt;" d="M152.27,105.53H55.6a5.82,5.82,0,0,1-5.76-4.89L49,95.17H95.61l1.71,2.46h11.27l1.85-2.46h49l-.8,4.92A6.47,6.47,0,0,1,152.27,105.53ZM51.52,97.36l.48,2.93a3.63,3.63,0,0,0,3.6,3h96.67a4.28,4.28,0,0,0,4.24-3.6l.39-2.38H111.53l-1.85,2.46H96.18l-1.71-2.46Z" style="fill: #666"/>
      </g>
      <g id="e08430a0-93b9-43b6-9d75-d534c2b15598" data-name="&lt;Gruppe&gt;">
        <g id="b33e2089-11a0-4e52-b60c-b88b0cc84d9f" data-name="&lt;Gruppe&gt;">
          <rect x="71.46" y="40.65" width="9.96" height="1.3" style="fill: #fff"/>
        </g>
        <g id="defc4013-1018-40f4-a8cf-7661381eabe9" data-name="&lt;Gruppe&gt;">
          <rect id="a09f9ceb-a924-422d-be9e-1eeb29887609" data-name="&lt;Rechteck&gt;" x="76.44" y="45.1" width="6.86" height="1.3" style="fill: #fff"/>
        </g>
        <g id="b9f59f59-523e-4d1c-8574-08ac7e4dea74" data-name="&lt;Gruppe&gt;">
          <rect id="92dc87ae-40e8-4b49-8961-4e7b605a4a9d" data-name="&lt;Rechteck&gt;" x="98.47" y="45.1" width="47.84" height="1.3" style="fill: #fff"/>
        </g>
        <g id="514345a9-9844-4739-8e90-bd07431f7121" data-name="&lt;Gruppe&gt;">
          <rect id="dd38ca3c-e4f0-408f-9254-2f586a939b10" data-name="&lt;Rechteck&gt;" x="88.02" y="45.1" width="7.72" height="1.3" transform="translate(183.76 91.51) rotate(180)" style="fill: #fff"/>
        </g>
        <g id="9a9bce26-0cd0-4f96-8170-0d918a032ce1" data-name="&lt;Gruppe&gt;">
          <rect x="78.78" y="48.82" width="13.67" height="1.3" style="fill: #fff"/>
        </g>
        <g id="78066d88-1050-4bc4-ae51-643a81c7a03c" data-name="&lt;Gruppe&gt;">
          <rect x="84.31" y="54.07" width="17.35" height="1.3" style="fill: #fff"/>
        </g>
        <g id="c290516a-e052-4d85-a99a-42f24b154d3f" data-name="&lt;Gruppe&gt;">
          <rect id="fc7cba66-13fa-416e-b148-ad61bb6aaab4" data-name="&lt;Rechteck&gt;" x="71.46" y="59.01" width="18.96" height="1.3" style="fill: #fff"/>
        </g>
        <g id="19b0c807-d4f4-4301-9b02-a7a1ed70fd66" data-name="&lt;Gruppe&gt;">
          <rect x="92.45" y="59.01" width="13.69" height="1.3" transform="translate(198.59 119.32) rotate(180)" style="fill: #fff"/>
        </g>
        <g id="ced6a9ed-da8f-4b24-aca2-a559e3a23d67" data-name="&lt;Gruppe&gt;">
          <rect x="76.44" y="63.95" width="25.42" height="1.3" style="fill: #fff"/>
        </g>
        <g id="8e728f31-e477-4609-94d5-f163af34ee30" data-name="&lt;Gruppe&gt;">
          <rect x="112.24" y="63.95" width="16.9" height="1.3" transform="translate(241.38 129.2) rotate(180)" style="fill: #fff"/>
        </g>
        <g id="e3f727f2-f423-4e70-b507-28485ac2c7a6" data-name="&lt;Gruppe&gt;">
          <rect x="102.93" y="63.95" width="7.98" height="1.3" style="fill: #fff"/>
        </g>
        <g id="2185e992-0c61-4820-9fa9-e3894773961c" data-name="&lt;Gruppe&gt;">
          <rect x="84.89" y="68.89" width="22.24" height="1.3" style="fill: #fff"/>
        </g>
        <g id="0d1c535d-2f1c-4abf-bd31-921ca6cfc198" data-name="&lt;Gruppe&gt;">
          <rect x="78.78" y="68.89" width="4.66" height="1.3" transform="translate(162.21 139.08) rotate(180)" style="fill: #fff"/>
        </g>
        <g id="544ec0fb-54c8-4623-9994-25625b159eac" data-name="&lt;Gruppe&gt;">
          <rect id="18997a2a-34ca-4645-8a99-d9a44aca097f" data-name="&lt;Rechteck&gt;" x="71.46" y="72.52" width="15.17" height="1.3" style="fill: #fff"/>
        </g>
        <g id="4e6a2776-a78f-4d4f-a353-bd810bc0e4e2" data-name="&lt;Gruppe&gt;">
          <rect id="c85a4a7b-41bd-436b-a3cd-5fce49c9a93d" data-name="&lt;Rechteck&gt;" x="87.81" y="72.52" width="5.21" height="1.3" style="fill: #fff"/>
        </g>
        <g id="64470979-9909-4916-b065-24453ab8f782" data-name="&lt;Gruppe&gt;">
          <rect id="f216f9e1-d542-4876-bbb9-fee5b37671fa" data-name="&lt;Rechteck&gt;" x="94.48" y="72.52" width="24.89" height="1.3" style="fill: #fff"/>
        </g>
        <g id="cb54118e-4ffb-43c4-a260-0dc4d52ac0ef" data-name="&lt;Gruppe&gt;">
          <rect id="51329947-a878-4233-9d28-6ba51d173d71" data-name="&lt;Rechteck&gt;" x="121.3" y="72.52" width="22.48" height="1.3" transform="translate(265.08 146.34) rotate(180)" style="fill: #fff"/>
        </g>
        <g id="ecd11dd9-420c-4974-8ea9-ee966bcf3d2b" data-name="&lt;Gruppe&gt;">
          <rect x="76.44" y="77.46" width="7.87" height="1.3" style="fill: #fff"/>
        </g>
        <g id="2565e920-4b12-4850-b6de-9fb754279029" data-name="&lt;Gruppe&gt;">
          <rect x="86.63" y="77.46" width="18.69" height="1.3" transform="translate(191.96 156.22) rotate(180)" style="fill: #fff"/>
        </g>
        <g id="466c2f31-3ab5-4148-84d1-e34e554f7280" data-name="&lt;Gruppe&gt;">
          <rect id="7a8c310d-16d0-4091-9309-a986b6c64a8a" data-name="&lt;Rechteck&gt;" x="80.68" y="82.4" width="15.17" height="1.3" style="fill: #fff"/>
        </g>
        <g id="b8d606e2-2c88-4287-b6bf-eb674c465956" data-name="&lt;Gruppe&gt;">
          <rect id="f2567922-ef29-480c-89fd-3d3c02bb95de" data-name="&lt;Rechteck&gt;" x="99.04" y="82.4" width="15.17" height="1.3" style="fill: #fff"/>
        </g>
        <g id="239e09b0-d888-4f30-aee5-2d3fa68e57a3" data-name="&lt;Gruppe&gt;">
          <rect id="acbcd208-628c-45ed-ac9d-36f77839d423" data-name="&lt;Rechteck&gt;" x="116.57" y="82.4" width="14.29" height="1.3" style="fill: #fff"/>
        </g>
        <g id="0c51ec02-a4b0-4fcd-b7d9-914ea47b50fc" data-name="&lt;Gruppe&gt;">
          <rect x="140.62" y="54.07" width="4.29" height="1.3" transform="translate(285.53 109.44) rotate(180)" style="fill: #fff"/>
        </g>
        <g id="fdd809ad-1bfb-4b91-a488-d480fea13a0e" data-name="&lt;Gruppe&gt;">
          <rect id="30dc8575-de13-4a35-8579-9a350f4fa5d4" data-name="&lt;Rechteck&gt;" x="103.19" y="54.07" width="35.53" height="1.3" style="fill: #fff"/>
        </g>
        <g id="971ea788-deed-49fd-b8f0-07de7998fc53" data-name="&lt;Gruppe&gt;">
          <rect x="84.31" y="40.65" width="40.38" height="1.3" style="fill: #fff"/>
        </g>
        <g id="98f4c59b-59f5-4f16-b45c-75e01c6f57ac" data-name="&lt;Gruppe&gt;">
          <rect id="381ee46a-8c83-4833-820b-1655a625b7ae" data-name="&lt;Rechteck&gt;" x="64.71" y="38.71" width="2.1" height="2.1" style="fill: #fff"/>
        </g>
        <g id="86b464ba-799e-4af6-9d54-5a025637f5f4" data-name="&lt;Gruppe&gt;">
          <rect id="9f5e857e-0d15-4441-b438-2641ad90be4b" data-name="&lt;Rechteck&gt;" x="64.71" y="44.23" width="2.1" height="2.1" style="fill: #fff"/>
        </g>
        <g id="2faa12d1-e648-4c41-a129-4d53fc3e01fb" data-name="&lt;Gruppe&gt;">
          <rect id="592a0673-05c8-4180-a558-63937921b9f7" data-name="&lt;Rechteck&gt;" x="64.71" y="49.76" width="2.1" height="2.1" style="fill: #fff"/>
        </g>
        <g id="51b617b8-5176-462b-b4ba-bb39fede415f" data-name="&lt;Gruppe&gt;">
          <rect id="2c5a228f-f1f5-481b-8ed1-2ec58d1f9490" data-name="&lt;Rechteck&gt;" x="64.71" y="55.28" width="2.1" height="2.1" style="fill: #fff"/>
        </g>
        <g id="d279fdea-190a-46a1-ba52-eb0ebbfef59c" data-name="&lt;Gruppe&gt;">
          <rect id="8a8ee618-5aed-4477-a52e-ff54fd19da24" data-name="&lt;Rechteck&gt;" x="64.71" y="60.81" width="2.1" height="2.1" style="fill: #fff"/>
        </g>
        <g id="8aff3ee5-4ac6-493b-89e8-c72503d3e482" data-name="&lt;Gruppe&gt;">
          <rect id="e6c53f96-6065-427c-a1bb-6aa7e7a741a9" data-name="&lt;Rechteck&gt;" x="64.71" y="66.34" width="2.1" height="2.1" style="fill: #fff"/>
        </g>
        <g id="c1147e2a-1663-4942-9cfc-3bef034d60b2" data-name="&lt;Gruppe&gt;">
          <rect id="1005910a-cbb8-4faf-9594-b7c40ed2f288" data-name="&lt;Rechteck&gt;" x="64.71" y="71.86" width="2.1" height="2.1" style="fill: #fff"/>
        </g>
        <g id="2a456145-0a86-478a-853a-b4641559db23" data-name="&lt;Gruppe&gt;">
          <rect id="d88886be-807b-41e3-af22-65f74a27e899" data-name="&lt;Rechteck&gt;" x="64.71" y="77.39" width="2.1" height="2.1" style="fill: #fff"/>
        </g>
        <g id="4d5a7b5b-4ff2-41ee-849d-998d98954330" data-name="&lt;Gruppe&gt;">
          <rect x="64.71" y="82.92" width="2.1" height="2.1" style="fill: #fff"/>
        </g>
        <g id="6c83f535-6438-4dca-a6f4-d9d5531761dc" data-name="&lt;Gruppe&gt;">
          <rect x="64.71" y="88.44" width="2.1" height="2.1" style="fill: #fff"/>
        </g>
      </g>
      <g id="a2acae4e-8d47-40ae-9d45-9414dcdaa6ca" data-name="&lt;Gruppe&gt;" style="opacity: 0.2">
        <path id="4aef249e-bbd7-4c81-bc58-c6137319acbb" data-name="&lt;Pfad&gt;" d="M55.87,29.29a.91.91,0,0,0-.91.91V54.14H94.74a4.2,4.2,0,0,0,4.2-4.2V29.29Z" style="fill: #8091a1"/>
      </g>
      <g id="767c6deb-3184-4902-9839-0a2f6b05c9c7" data-name="&lt;Gruppe&gt;">
        <rect x="47.37" y="16.41" width="49.58" height="35.93" rx="4.63" ry="4.63" style="fill: #fff"/>
      </g>
      <g id="f15e7059-2811-4233-8420-07ca1938cbde" data-name="&lt;Gruppe&gt;" style="opacity: 0.2">
        <path d="M47.37,24.07V18.89a2.48,2.48,0,0,1,2.48-2.48H94.46A2.49,2.49,0,0,1,97,18.89v5.18Z" style="fill: #8091a1"/>
      </g>
      <g id="cc215e3c-f6cd-4ff3-804a-b4d5e2886df7" data-name="&lt;Gruppe&gt;">
        <path id="2a182a7f-1746-497b-ad04-8ee4fed3acf7" data-name="&lt;Pfad&gt;" d="M94.46,53.42H49.85a3.57,3.57,0,0,1-3.57-3.57v-31a3.57,3.57,0,0,1,3.57-3.57h6.58v2.17H49.85a1.4,1.4,0,0,0-1.4,1.4v31a1.4,1.4,0,0,0,1.4,1.4H94.46a1.4,1.4,0,0,0,1.4-1.4v-31a1.4,1.4,0,0,0-1.4-1.4H65.05V15.32H94.46A3.57,3.57,0,0,1,98,18.89v31A3.57,3.57,0,0,1,94.46,53.42Z" style="fill: #666"/>
      </g>
      <g id="97023d55-5770-45ef-bc07-7ed1d39c3c90" data-name="&lt;Gruppe&gt;">
        <rect id="07fc1631-b68a-4463-a54f-eef2dcd367b6" data-name="&lt;Pfad&gt;" x="47.19" y="22.9" width="49.94" height="2.18" style="fill: #666"/>
      </g>
      <g style="mask: url(#96aa544e-68a2-4e0b-aaec-3071169a2782)">
        <rect x="50.54" y="14.73" width="38.61" height="27.93" style="fill: url(#0ed3815a-4ad4-459d-b4dd-03999e29953c)"/>
      </g>
    </g>
  </g>
</svg>
