<?xml version="1.0" encoding="utf-8"?>
<!-- Svg Vector Icons : http://www.onlinewebfonts.com/icon -->
<!DOCTYPE svg PUBLIC "-//W3C//DTD SVG 1.1//EN" "http://www.w3.org/Graphics/SVG/1.1/DTD/svg11.dtd">
<svg version="1.1" xmlns="http://www.w3.org/2000/svg" xmlns:xlink="http://www.w3.org/1999/xlink" x="0px" y="0px" viewBox="0 0 1000 1000" enable-background="new 0 0 1000 1000" xml:space="preserve">
<metadata> Svg Vector Icons : http://www.onlinewebfonts.com/icon </metadata>
<g><path d="M500,745.1c23.6,0,44.5-9,62.5-27.1c18.1-18.1,27.1-38.9,27.1-62.5c0-23.6-9-44.5-27.1-62.5c-18.1-18.1-38.9-27.1-62.5-27.1c-23.6,0-44.5,9-62.5,27.1c-18.1,18.1-27.1,38.9-27.1,62.5c0,23.6,9,44.5,27.1,62.5C455.5,736,476.3,745.1,500,745.1z M366.5,388.5h266.9L500,192.5L366.5,388.5z M731.4,388.5h212.7c12.5,0,23.3,4.2,32.3,12.5c9,8.3,13.6,18.8,13.6,31.3c-13.9,55.6-34.8,133.8-62.5,234.6c-27.8,100.8-45.2,164.4-52.1,190.8c-12.5,43.1-41,64.6-85.5,64.6H210.2c-44.5,0-73-21.5-85.5-64.6L12.1,444.8c-1.4-2.8-2.1-7-2.1-12.5c0-12.5,4.5-22.9,13.6-31.3c9-8.3,19.8-12.5,32.3-12.5h212.7L462.5,96.5c8.3-12.5,20.8-18.8,37.5-18.8c16.7,0,29.2,6.3,37.5,18.8L731.4,388.5z"/></g>
</svg>