<svg id="b294ffae-3043-4ab6-a6c4-6d16930b3b6b" data-name="Clean Icons" xmlns="http://www.w3.org/2000/svg" xmlns:xlink="http://www.w3.org/1999/xlink" viewBox="0 0 104 115">
  <defs>
    <mask id="52f5a0fd-f963-4849-8ab9-5aaefeb79767" x="0.22" y="19.27" width="102.78" height="82.2" maskUnits="userSpaceOnUse">
      <path d="M15.74,51.19A4.78,4.78,0,0,1,14,47.89c0-2.77,3.47-4.86,3.47-7.64s-5.21-9.2-2.78-11.11c2.09-2.08,9.21,3,12.16,3s5.38-3.64,8.33-3.64,5.38,3.64,8.34,3.64,5.38-3.64,8.33-3.64,5.38,3.64,8.34,3.64,5.38-3.64,8.33-3.64,5.38,3.64,8.34,3.64,11.11-5.21,13-3c2.08,1.91-2.78,8.51-2.78,11.11,0,2.78,3.47,5,3.47,7.64,0,2.78-3.47,4.69-3.47,7.47s3.47,4.69,3.47,7.47-3.47,5-3.47,7.64c0,2.78,4.86,9.37,2.78,11.28C88,83.66,79.82,79,76.87,79s-5.39,3.47-8.34,3.47S63.15,79,60.2,79s-5.39,3.3-8.34,3.3-5.38-3.48-8.33-3.48H41.79" style="fill: none;stroke: #fff;stroke-miterlimit: 10"/>
    </mask>
    <linearGradient id="0ceb8491-1003-4ff4-9c02-c8f31a9b21a9" data-name="Verlauf" x1="51.62" y1="19.27" x2="51.62" y2="101.47" gradientUnits="userSpaceOnUse">
      <stop offset="0" stop-color="#4ef2f1"/>
      <stop offset="1" stop-color="#299ed4"/>
    </linearGradient>
  </defs>
  <title>_</title>
  <g id="3583a90b-cf61-41b9-8434-10750560f8fe" data-name="4 - Fill">
    <path d="M26.16,75.33a12,12,0,0,1-6.23-1.74h-.71V99.64l6.94-5.21,7,5.21v-26H32.4A12,12,0,0,1,26.16,75.33Z" style="fill: #bcc0c4;opacity: 0.5"/>
  </g>
  <g id="42e21284-3d9e-4edd-bc04-d83ea3369acf" data-name="3 - Fill">
    <circle cx="26.16" cy="63.18" r="12.15" style="fill: #bcc0c4"/>
  </g>
  <g id="5803c25c-33ab-46ce-8bdd-0cdaf2c918f6" data-name="0 - Hover">
    <g style="mask: url(#52f5a0fd-f963-4849-8ab9-5aaefeb79767)">
      <rect x="0.22" y="19.27" width="102.78" height="82.2" style="fill: url(#0ceb8491-1003-4ff4-9c02-c8f31a9b21a9)"/>
    </g>
  </g>
  <g id="efeeb4f0-3c31-4f28-8631-e291e1c7be83" data-name="1 - Stroke">
    <circle cx="26.16" cy="63.18" r="12.15" style="fill: none;stroke: #526468;stroke-linejoin: round"/>
    <line x1="88.67" y1="89.22" x2="38.32" y2="89.22" style="fill: none;stroke: #526468;stroke-miterlimit: 10"/>
    <polyline points="97.36 84.01 97.36 89.22 92.15 89.22" style="fill: none;stroke: #526468;stroke-miterlimit: 10"/>
    <line x1="97.36" y1="30.18" x2="97.36" y2="80.54" style="fill: none;stroke: #526468;stroke-miterlimit: 10"/>
    <polyline points="92.15 21.5 97.36 21.5 97.36 26.71" style="fill: none;stroke: #526468;stroke-miterlimit: 10"/>
    <line x1="15.74" y1="21.5" x2="88.67" y2="21.5" style="fill: none;stroke: #526468;stroke-miterlimit: 10"/>
    <polyline points="7.06 26.71 7.06 21.5 12.27 21.5" style="fill: none;stroke: #526468;stroke-miterlimit: 10"/>
    <polyline points="14.01 89.22 7.06 89.22 7.06 30.18" style="fill: none;stroke: #526468;stroke-miterlimit: 10"/>
    <line x1="45.26" y1="47.55" x2="73.05" y2="47.55" style="fill: none;stroke: #526468;stroke-linejoin: round"/>
    <line x1="45.26" y1="54.49" x2="73.05" y2="54.49" style="fill: none;stroke: #526468;stroke-linejoin: round"/>
    <line x1="45.26" y1="61.44" x2="64.36" y2="61.44" style="fill: none;stroke: #526468;stroke-linejoin: round"/>
    <polyline points="33.11 73.59 33.11 99.64 26.16 94.43 19.22 99.64 19.22 73.59" style="fill: none;stroke: #526468;stroke-linejoin: round"/>
  </g>
</svg>
